# xmcd
#
# Track frame offsets: 
#        150
#        15075
#        47140
#        59143
#        96235
#        107964
#        131599
#        142074
#        154802
#        170442
#        193960
#        208657
#        226455
#        240893
#        260342
#        271448
#        286864
#        307365
#
# Disc length: 4279 seconds
#
# Revision: 0
# Processed by: cddbd v1.5.1PL0 Copyright (c) Steve Scherf et al.
# Submitted via: ExactAudioCopy v0.95a3
#
DISCID=1010b512
DTITLE=Neil Young - Chrome Dreams (Rust Edition)
DYEAR=1976
DGENRE=
TTITLE0=Pocahontas
TTITLE1=Will To Love
TTITLE2=Star Of Bethlehem
TTITLE3=Like A Huricane
TTITLE4=Too Far Gone
TTITLE5=Hold Back The Tears
TTITLE6=Homegrown
TTITLE7=Captain Kennedy
TTITLE8=Stringman
TTITLE9=Sedan Delivery
TTITLE10=Powderfinger
TTITLE11=Look Out For My Love
TTITLE12=River Of Pride (White Line)
TTITLE13=Campaigner
TTITLE14=No One Seems To Know
TTITLE15=Give Me Strength
TTITLE16=Peace Of Mind
TTITLE17=Human Highway
EXTD=
EXTT0=
EXTT1=
EXTT2=
EXTT3=
EXTT4=
EXTT5=
EXTT6=
EXTT7=
EXTT8=
EXTT9=
EXTT10=
EXTT11=
EXTT12=
EXTT13=
EXTT14=
EXTT15=
EXTT16=
EXTT17=
PLAYORDER=
